<svg xmlns="http://www.w3.org/2000/svg" viewBox="0 0 56 56"><path d="M36.985 0H7.963C7.155 0 6.5.655 6.5 1.926V55c0 .345.655 1 1.463 1h40.074c.808 0 1.463-.655 1.463-1V12.978c0-.696-.093-.92-.257-1.085L37.607.257C37.442.093 37.218 0 36.985 0z" fill="#e9e9e0"/><path d="M37.5.15V12h11.85z" fill="#d9d7ca"/><path d="M48.037 56H7.963c-.808 0-1.463-.655-1.463-1.463V39h43v15.537c0 .808-.655 1.463-1.463 1.463z" fill="#0096e6"/><path d="M23.58 51.975a3.73 3.73 0 0 1-1.271.82 4.23 4.23 0 0 1-1.531.273c-.602 0-1.155-.1-1.66-.328a3.72 3.72 0 0 1-1.326-.971c-.378-.43-.675-.966-.9-1.613s-.32-1.395-.32-2.242.107-1.593.32-2.235.5-1.178.9-1.606a3.81 3.81 0 0 1 1.333-.978c.51-.224 1.062-.335 1.654-.335a4.23 4.23 0 0 1 1.531.273 3.73 3.73 0 0 1 1.271.82l-1.135 1.012c-.228-.265-.48-.456-.76-.574s-.567-.178-.868-.178a2.47 2.47 0 0 0-.964.191c-.306.128-.58.344-.82.65s-.43.7-.567 1.183-.2 1.075-.22 1.777c.01.684.08 1.267.212 1.75s.314.877.547 1.183.497.528.793.67.608.212.937.212a2.4 2.4 0 0 0 .923-.178 2.05 2.05 0 0 0 .786-.574l1.134 1zm8.053-1.737a2.6 2.6 0 0 1-.226 1.06 2.75 2.75 0 0 1-.636.902 2.95 2.95 0 0 1-1.012.622 3.81 3.81 0 0 1-1.367.232c-.22 0-.444-.012-.677-.034s-.467-.062-.704-.116a3.61 3.61 0 0 1-.677-.226 2.19 2.19 0 0 1-.554-.349l.287-1.176a2.92 2.92 0 0 0 .485.212l.608.2.63.144a3.39 3.39 0 0 0 .588.055c.556 0 .982-.13 1.278-.4s.444-.645.444-1.155a1.12 1.12 0 0 0-.314-.793c-.2-.22-.473-.406-.786-.584l-1.02-.533c-.365-.178-.706-.388-1.025-.63a3.28 3.28 0 0 1-.793-.854c-.2-.328-.314-.738-.314-1.23 0-.446.082-.843.246-1.2a2.66 2.66 0 0 1 .663-.882c.278-.24.602-.426.97-.554s.76-.2 1.17-.2a7.17 7.17 0 0 1 1.271.116c.428.077.774.203 1.04.376l-.2.4-.205.396-.164.308-.082.137a1.65 1.65 0 0 1-.185-.109 1.39 1.39 0 0 0-.294-.137c-.128-.046-.296-.077-.506-.096a4.78 4.78 0 0 0-.807.014 1.41 1.41 0 0 0-.52.157 1.8 1.8 0 0 0-.438.321 1.44 1.44 0 0 0-.3.43c-.072.16-.1.313-.1.458 0 .364.104.658.314.882s.47.42.78.588l1.012.492a5.64 5.64 0 0 1 1.02.58 2.91 2.91 0 0 1 .786.854c.2.34.318.78.318 1.32zm7.4 0a2.6 2.6 0 0 1-.226 1.06 2.75 2.75 0 0 1-.636.902 2.95 2.95 0 0 1-1.012.622 3.81 3.81 0 0 1-1.367.232c-.22 0-.444-.012-.677-.034s-.467-.062-.704-.116a3.61 3.61 0 0 1-.677-.226 2.19 2.19 0 0 1-.554-.349l.287-1.176a2.92 2.92 0 0 0 .485.212l.608.2.63.144a3.39 3.39 0 0 0 .588.055c.556 0 .982-.13 1.278-.4s.444-.645.444-1.155a1.12 1.12 0 0 0-.314-.793c-.2-.22-.472-.417-.786-.595l-1.02-.533c-.365-.178-.706-.388-1.025-.63a3.28 3.28 0 0 1-.793-.854c-.2-.328-.314-.738-.314-1.23 0-.446.082-.843.246-1.2a2.66 2.66 0 0 1 .663-.882c.278-.24.602-.426.97-.554s.76-.2 1.17-.2a7.17 7.17 0 0 1 1.271.116c.428.077.774.203 1.04.376l-.2.4-.205.396-.164.308-.082.137a1.65 1.65 0 0 1-.185-.109 1.39 1.39 0 0 0-.294-.137c-.128-.046-.296-.077-.506-.096a4.78 4.78 0 0 0-.807.014 1.41 1.41 0 0 0-.52.157 1.8 1.8 0 0 0-.438.321 1.44 1.44 0 0 0-.3.43c-.072.16-.1.313-.1.458 0 .364.104.658.314.882s.47.42.78.588l1.012.492a5.64 5.64 0 0 1 1.02.58 2.91 2.91 0 0 1 .786.854c.2.34.318.78.318 1.32z" fill="#fff"/><path d="M19.5 19v-4a1 1 0 0 1 1-1 1 1 0 1 0 0-2c-1.654 0-3 1.346-3 3v4c0 1.103-.897 2-2 2a1 1 0 1 0 0 2c1.103 0 2 .897 2 2v4c0 1.654 1.346 3 3 3a1 1 0 1 0 0-2 1 1 0 0 1-1-1v-4c0-1.2-.542-2.266-1.382-3 .84-.734 1.382-1.8 1.382-3zm20 2c-1.103 0-2-.897-2-2v-4c0-1.654-1.346-3-3-3a1 1 0 1 0 0 2 1 1 0 0 1 1 1v4c0 1.2.542 2.266 1.382 3-.84.734-1.382 1.8-1.382 3v4a1 1 0 0 1-1 1 1 1 0 1 0 0 2c1.654 0 3-1.346 3-3v-4c0-1.103.897-2 2-2a1 1 0 1 0 0-2z" fill="#0096e6"/></svg>