<svg xmlns="http://www.w3.org/2000/svg" viewBox="0 0 56 56"><path d="M36.985 0H7.963C7.155 0 6.5.655 6.5 1.926V55c0 .345.655 1 1.463 1h40.074c.808 0 1.463-.655 1.463-1V12.978c0-.696-.093-.92-.257-1.085L37.607.257C37.442.093 37.218 0 36.985 0z" fill="#e9e9e0"/><path d="M37.5.15V12h11.85z" fill="#d9d7ca"/><path d="M18.5 13h-6a1 1 0 1 1 0-2h6a1 1 0 1 1 0 2zm3 5h-9a1 1 0 1 1 0-2h9a1 1 0 1 1 0 2zm4 0a1.05 1.05 0 0 1-.71-.29 1.05 1.05 0 0 1-.29-.71 1.05 1.05 0 0 1 .29-.71 1.05 1.05 0 0 1 1.42 0 1.05 1.05 0 0 1 .29.71 1.05 1.05 0 0 1-.29.71 1.05 1.05 0 0 1-.71.29zm12 0h-8a1 1 0 1 1 0-2h8a1 1 0 1 1 0 2zm-25 15a1.05 1.05 0 0 1-.71-.29 1.05 1.05 0 0 1-.29-.71 1.05 1.05 0 0 1 .29-.71 1.05 1.05 0 0 1 1.42 0c.18.2.3.44.3.7a1.05 1.05 0 0 1-.29.71 1.05 1.05 0 0 1-.71.29zm12 0h-8a1 1 0 1 1 0-2h8a1 1 0 1 1 0 2zm19-15h-2a1 1 0 1 1 0-2h2a1 1 0 1 1 0 2zm-9 5h-22a1 1 0 1 1 0-2h22a1 1 0 1 1 0 2zm9 0h-6a1 1 0 1 1 0-2h6a1 1 0 1 1 0 2zm-27 5h-4a1 1 0 1 1 0-2h4a1 1 0 1 1 0 2zm14 0h-10a1 1 0 1 1 0-2h10a1 1 0 1 1 0 2zm13 0h-9a1 1 0 1 1 0-2h9a1 1 0 1 1 0 2z" fill="#8697cb"/><path d="M48.037 56H7.963c-.808 0-1.463-.655-1.463-1.463V39h43v15.537c0 .808-.655 1.463-1.463 1.463z" fill="#0096e6"/><path d="M23.5 47.682c0 .83-.1 1.538-.267 2.126s-.403 1.08-.677 1.477-.58.7-.923.937a4.63 4.63 0 0 1-.991.513c-.32.114-.6.187-.875.22L19.18 53h-3.814V42.924H18.4c.848 0 1.593.135 2.235.403s1.176.627 1.6 1.073.74.955.95 1.524.315 1.156.315 1.758zm-4.867 4.115c1.112 0 1.914-.355 2.406-1.066s.738-1.74.738-3.1c0-.42-.05-.834-.15-1.244a2.66 2.66 0 0 0-.581-1.114c-.287-.333-.677-.602-1.17-.807s-1.13-.308-1.914-.308h-.957v7.63h1.627zm14.842-3.883c0 .848-.107 1.595-.32 2.242s-.5 1.185-.9 1.613a3.72 3.72 0 0 1-1.326.971 4.12 4.12 0 0 1-1.66.328 4.15 4.15 0 0 1-1.66-.328 3.72 3.72 0 0 1-1.326-.971c-.378-.43-.675-.966-.9-1.613s-.32-1.395-.32-2.242.107-1.593.32-2.235.5-1.178.9-1.606a3.8 3.8 0 0 1 1.326-.978c.506-.224 1.06-.335 1.66-.335s1.155.1 1.66.335a3.8 3.8 0 0 1 1.326.978c.378.43.674.964.9 1.606s.32 1.387.32 2.235zm-4.24 3.815c.337 0 .658-.066.964-.198s.58-.35.82-.65.43-.695.567-1.183.2-1.082.22-1.784c-.01-.684-.08-1.265-.212-1.743s-.314-.873-.547-1.183-.497-.533-.793-.67-.608-.205-.937-.205a2.48 2.48 0 0 0-.964.19c-.304.127-.58.344-.82.65s-.43.7-.567 1.183-.2 1.075-.22 1.777c.01.684.08 1.267.212 1.75s.314.877.547 1.183.497.528.793.67a2.16 2.16 0 0 0 .937.212zm13.372.246a3.73 3.73 0 0 1-1.271.82 4.21 4.21 0 0 1-1.53.273c-.602 0-1.155-.1-1.66-.328a3.72 3.72 0 0 1-1.326-.971c-.378-.43-.675-.966-.9-1.613s-.32-1.395-.32-2.242.107-1.593.32-2.235.5-1.178.9-1.606a3.78 3.78 0 0 1 1.333-.978c.5-.224 1.062-.335 1.654-.335.547 0 1.057.1 1.53.273a3.73 3.73 0 0 1 1.27.82l-1.135 1.012c-.228-.265-.48-.456-.76-.574a2.2 2.2 0 0 0-.868-.178 2.48 2.48 0 0 0-.964.19c-.304.127-.58.344-.82.65s-.43.7-.567 1.183-.2 1.075-.22 1.777c.01.684.08 1.267.212 1.75s.314.877.547 1.183.497.528.793.67.608.212.937.212a2.4 2.4 0 0 0 .923-.178 2.05 2.05 0 0 0 .786-.574l1.134 1z" fill="#fff"/></svg>