<svg xmlns="http://www.w3.org/2000/svg" viewBox="0 0 56 56"><path d="M36.985 0H7.963C7.155 0 6.5.655 6.5 1.926V55c0 .345.655 1 1.463 1h40.074c.808 0 1.463-.655 1.463-1V12.978c0-.696-.093-.92-.257-1.085L37.607.257C37.442.093 37.218 0 36.985 0z" fill="#e9e9e0"/><path d="M37.5.15V12h11.85z" fill="#d9d7ca"/><path d="M48.037 56H7.963c-.808 0-1.463-.655-1.463-1.463V39h43v15.537c0 .808-.655 1.463-1.463 1.463z" fill="#ec6630"/><path d="M17.455 42.924V53h-1.64v-4.54h-4.36V53h-1.67V42.924h1.668v4.416h4.36v-4.416h1.64zm9.652 0v1.12H24.1V53h-1.654v-8.955h-3.008v-1.12h7.67zm9.598 0h1.668V53h-1.668v-6.932l-2.256 5.605H33l-2.27-5.605V53h-1.668V42.924h1.668l2.994 6.9 2.98-6.9zm5.865 0v8.832h4.635V53h-6.303V42.924h1.668z" fill="#fff"/><path d="M23.207 16.293a1 1 0 0 0-1.414 0l-6 6a1 1 0 0 0 0 1.414l6 6c.195.195.45.293.707.293s.512-.098.707-.293a1 1 0 0 0 0-1.414L17.914 23l5.293-5.293a1 1 0 0 0 0-1.414zm18 6l-6-6a1 1 0 0 0-1.414 1.414L39.086 23l-5.293 5.293a1 1 0 0 0 0 1.414c.195.195.45.293.707.293s.512-.098.707-.293l6-6a1 1 0 0 0 0-1.414z" fill="#ec6630"/></svg>