<svg xmlns="http://www.w3.org/2000/svg" viewBox="0 0 56 56"><path d="M36.985 0H7.963C7.155 0 6.5.655 6.5 1.926V55c0 .345.655 1 1.463 1h40.074c.808 0 1.463-.655 1.463-1V12.978c0-.696-.093-.92-.257-1.085L37.607.257C37.442.093 37.218 0 36.985 0z" fill="#e9e9e0"/><path d="M37.5.15V12h11.85z" fill="#d9d7ca"/><path d="M48.037 56H7.963c-.808 0-1.463-.655-1.463-1.463V39h43v15.537c0 .808-.655 1.463-1.463 1.463z" fill="#eeaf4b"/><path d="M26.02 42.72v7.848c0 .474-.087.873-.26 1.196a2.15 2.15 0 0 1-.697.779 2.6 2.6 0 0 1-1.005.4 5.85 5.85 0 0 1-1.169.116 4.62 4.62 0 0 1-.704-.062 6.31 6.31 0 0 1-.834-.19l-.827-.294c-.265-.1-.488-.232-.67-.37l.697-1.107a2.04 2.04 0 0 0 .39.198 6.04 6.04 0 0 0 .554.191l.63.157c.22.046.424.068.615.068.482 0 .868-.094 1.155-.28s.44-.504.458-.95v-7.7h1.668zm8.164 7.518a2.6 2.6 0 0 1-.226 1.06 2.75 2.75 0 0 1-.636.902c-.274.26-.6.467-1.012.622s-.857.232-1.367.232c-.22 0-.444-.012-.677-.034s-.468-.062-.704-.116-.463-.13-.677-.226a2.17 2.17 0 0 1-.554-.349l.287-1.176a2.92 2.92 0 0 0 .485.212l.608.2c.2.06.42.107.63.144a3.48 3.48 0 0 0 .588.055c.556 0 .982-.13 1.278-.4s.444-.645.444-1.155c0-.3-.105-.574-.314-.793s-.472-.417-.786-.595l-1.02-.533a6.11 6.11 0 0 1-1.025-.63c-.318-.242-.584-.526-.793-.854s-.314-.738-.314-1.23c0-.446.082-.843.246-1.2a2.66 2.66 0 0 1 .663-.882c.278-.24.602-.426.97-.554s.76-.2 1.17-.2a7.17 7.17 0 0 1 1.271.116c.428.077.774.203 1.04.376l-.2.4-.205.396-.164.308-.082.137a1.65 1.65 0 0 1-.185-.109c-.07-.046-.167-.1-.294-.137a2.05 2.05 0 0 0-.506-.096 4.78 4.78 0 0 0-.807.014 1.41 1.41 0 0 0-.52.157 1.78 1.78 0 0 0-.438.321c-.128.128-.23.27-.3.43a1.1 1.1 0 0 0-.109.458c0 .364.104.658.314.882s.47.42.78.588l1.012.492a5.52 5.52 0 0 1 1.019.581c.315.227.576.513.786.854s.318.78.318 1.32z" fill="#fff"/><g fill="#eeaf4b"><path d="M19.5 19v-4a1 1 0 0 1 1-1 1 1 0 1 0 0-2c-1.654 0-3 1.346-3 3v4c0 1.103-.897 2-2 2a1 1 0 1 0 0 2c1.103 0 2 .897 2 2v4c0 1.654 1.346 3 3 3a1 1 0 1 0 0-2 1 1 0 0 1-1-1v-4c0-1.2-.542-2.266-1.382-3 .84-.734 1.382-1.8 1.382-3z"/><circle cx="27.5" cy="18.5" r="1.5"/><path d="M39.5 21c-1.103 0-2-.897-2-2v-4c0-1.654-1.346-3-3-3a1 1 0 1 0 0 2 1 1 0 0 1 1 1v4c0 1.2.542 2.266 1.382 3-.84.734-1.382 1.8-1.382 3v4a1 1 0 0 1-1 1 1 1 0 1 0 0 2c1.654 0 3-1.346 3-3v-4c0-1.103.897-2 2-2a1 1 0 1 0 0-2zm-12 3a1 1 0 0 0-1 1v3a1 1 0 1 0 2 0v-3a1 1 0 0 0-1-1z"/></g></svg>