<svg xmlns="http://www.w3.org/2000/svg" viewBox="0 0 56 56"><path d="M36.985 0H7.963C7.155 0 6.5.655 6.5 1.926V55c0 .345.655 1 1.463 1h40.074c.808 0 1.463-.655 1.463-1V12.978c0-.696-.093-.92-.257-1.085L37.607.257C37.442.093 37.218 0 36.985 0z" fill="#e9e9e0"/><path d="M37.5.15V12h11.85z" fill="#d9d7ca"/><circle cx="18.931" cy="14.431" r="4.569" fill="#f3d55b"/><path d="M6.5 39h43V28l-10-9.5L29 30l-5.483-5.483z" fill="#26b99a"/><path d="M48.037 56H7.963c-.808 0-1.463-.655-1.463-1.463V39h43v15.537c0 .808-.655 1.463-1.463 1.463z" fill="#14a085"/><path d="M21.426 42.65v7.848c0 .474-.087.873-.26 1.196a2.14 2.14 0 0 1-.697.779 2.6 2.6 0 0 1-1.005.4 5.78 5.78 0 0 1-1.169.117 4.62 4.62 0 0 1-.704-.062 5.98 5.98 0 0 1-.834-.191l-.827-.294c-.265-.1-.488-.232-.67-.37l.697-1.107a2.04 2.04 0 0 0 .39.198c.168.068.353.132.554.2l.63.157c.22.046.424.068.615.068.483 0 .868-.094 1.155-.28s.44-.504.458-.95v-7.7h1.668zm4.088 10.282h-1.64V42.855h2.898c.428 0 .852.068 1.27.205s.795.342 1.128.615a3.21 3.21 0 0 1 .807.991c.205.387.308.822.308 1.306 0 .5-.087.973-.26 1.388a2.9 2.9 0 0 1-.725 1.046c-.3.282-.684.5-1.12.656s-.92.232-1.45.232h-1.217v3.638zm0-8.832v3.992h1.504c.2 0 .398-.034.595-.103a1.5 1.5 0 0 0 .54-.335c.164-.155.296-.37.396-.65s.15-.622.15-1.032a2.79 2.79 0 0 0-.068-.567c-.046-.214-.14-.42-.28-.615a1.65 1.65 0 0 0-.595-.492c-.255-.132-.593-.2-1.012-.2h-1.23zM39.5 47.736v3.896a2.79 2.79 0 0 1-.704.65c-.26.17-.533.308-.82.417a4.23 4.23 0 0 1-.889.232 5.85 5.85 0 0 1-.91.07c-.602 0-1.155-.1-1.66-.328a3.72 3.72 0 0 1-1.326-.971c-.378-.43-.675-.966-.9-1.613s-.32-1.395-.32-2.242.107-1.593.32-2.235.5-1.178.9-1.606a3.78 3.78 0 0 1 1.333-.978c.5-.224 1.062-.335 1.654-.335.547 0 1.057.1 1.53.273a3.73 3.73 0 0 1 1.27.82l-1.135 1.012a1.95 1.95 0 0 0-.752-.574 2.25 2.25 0 0 0-.875-.178 2.48 2.48 0 0 0-.964.19c-.304.127-.58.344-.82.65s-.43.7-.567 1.183-.2 1.075-.22 1.777c.01.684.08 1.276.212 1.777s.314.9.547 1.23a2.33 2.33 0 0 0 .793.711 1.99 1.99 0 0 0 .937.232 5.14 5.14 0 0 0 .403-.021 4.91 4.91 0 0 0 .506-.068 3.29 3.29 0 0 0 .485-.13c.155-.055.27-.132.342-.232v-2.488h-1.7v-1.12h3.34z" fill="#fff"/></svg>