<svg xmlns="http://www.w3.org/2000/svg" viewBox="0 0 56 56"><path d="M36.985 0H7.963C7.155 0 6.5.655 6.5 1.926V55c0 .345.655 1 1.463 1h40.074c.808 0 1.463-.655 1.463-1V12.978c0-.696-.093-.92-.257-1.085L37.607.257C37.442.093 37.218 0 36.985 0z" fill="#e9e9e0"/><path d="M48.037 56H7.963c-.808 0-1.463-.655-1.463-1.463V39h43v15.537c0 .808-.655 1.463-1.463 1.463z" fill="#ff5364"/><path d="M22.4 42.924h1.668V53H22.4v-6.932l-2.256 5.605h-1.45l-2.27-5.605V53h-1.668V42.924h1.668l2.994 6.9 2.98-6.9zM28.2 53h-1.64V42.924h2.898c.428 0 .852.068 1.27.205s.795.342 1.128.615a3.21 3.21 0 0 1 .807.991c.205.387.308.822.308 1.306 0 .5-.087.973-.26 1.388a2.9 2.9 0 0 1-.725 1.046c-.3.282-.684.5-1.12.656s-.92.232-1.45.232H28.2V53zm0-8.832v3.992h1.504c.2 0 .398-.034.595-.103a1.5 1.5 0 0 0 .54-.335c.164-.155.296-.37.396-.65s.15-.622.15-1.032a2.79 2.79 0 0 0-.068-.567c-.046-.214-.14-.42-.28-.615a1.65 1.65 0 0 0-.595-.492c-.255-.132-.593-.198-1.012-.198H28.2zm10.27 6.48h-4.36V49.35l4.36-6.426h1.668v6.426H41.2v1.3h-1.053V53H38.48v-2.352zm0-1.298v-4.512l-2.9 4.512h2.9z" fill="#fff"/><path d="M24.5 28a1 1 0 0 1-1-1V13a1 1 0 0 1 .519-.877c.32-.175.7-.162 1.02.033l11 7c.287.184.462.502.462.844a1 1 0 0 1-.463.844l-11 7c-.163.103-.35.156-.537.156zm1-13.18v10.357L33.637 20 25.5 14.82zm3 20.18a15.02 15.02 0 0 1-15-15 15.02 15.02 0 0 1 15-15 15.02 15.02 0 0 1 15 15 15.02 15.02 0 0 1-15 15zm0-28a13.02 13.02 0 0 0-13 13 13.02 13.02 0 0 0 13 13 13.02 13.02 0 0 0 13-13 13.02 13.02 0 0 0-13-13z" fill="#c8bdb8"/><path d="M37.5.15V12h11.85z" fill="#d9d7ca"/></svg>