<svg xmlns="http://www.w3.org/2000/svg" viewBox="0 0 56 56"><path d="M36.985 0H7.963C7.155 0 6.5.655 6.5 1.926V55c0 .345.655 1 1.463 1h40.074c.808 0 1.463-.655 1.463-1V12.978c0-.696-.093-.92-.257-1.085L37.607.257C37.442.093 37.218 0 36.985 0z" fill="#e9e9e0"/><path d="M37.5.15V12h11.85z" fill="#d9d7ca"/><path d="M19.514 33.324c-.348 0-.682-.113-.967-.326-1.04-.78-1.18-1.65-1.115-2.242.182-1.628 2.195-3.332 5.985-5.068a67.13 67.13 0 0 0 3.788-10.75c-.998-2.172-1.968-5-1.26-6.643.248-.58.557-1.023 1.134-1.215a4.91 4.91 0 0 1 1.016-.172c.504 0 .947.65 1.26 1.05.295.376.964 1.173-.373 6.802 1.348 2.784 3.258 5.62 5.088 7.562 1.3-.237 2.44-.358 3.358-.358 1.566 0 2.515.365 2.902 1.117.32.622.2 1.35-.4 2.16-.557.78-1.325 1.2-2.22 1.2-1.216 0-2.632-.768-4.2-2.285a47.84 47.84 0 0 0-8.828 2.822c-.836 1.774-1.637 3.203-2.383 4.25-1.025 1.435-1.9 2.105-2.784 2.105zm2.662-5.126c-2.137 1.2-3.008 2.188-3.07 2.744-.01.092-.037.334.43.692.15-.047 1.02-.444 2.64-3.436zm13.637-4.442c.815.627 1.014.944 1.547.944.234 0 .9-.01 1.2-.44.15-.2.207-.343.23-.415-.123-.065-.286-.197-1.175-.197a14.62 14.62 0 0 0-1.812.109zm-7.47-6.582a71.29 71.29 0 0 1-2.674 7.564 50.45 50.45 0 0 1 6.496-2.02c-1.35-1.568-2.7-3.526-3.822-5.544zm-.607-8.462c-.098.033-1.33 1.757.096 3.216.95-2.115-.053-3.23-.096-3.216zM48.037 56H7.963c-.808 0-1.463-.655-1.463-1.463V39h43v15.537c0 .808-.655 1.463-1.463 1.463z" fill="#cc4b4c"/><path d="M17.385 53h-1.64V42.924h2.898c.428 0 .852.068 1.27.205s.795.342 1.128.615a3.21 3.21 0 0 1 .807.991c.205.387.308.822.308 1.306 0 .5-.087.973-.26 1.388a2.9 2.9 0 0 1-.725 1.046c-.3.282-.684.5-1.12.656s-.92.232-1.45.232h-1.217V53zm0-8.832v3.992h1.504c.2 0 .398-.034.595-.103a1.5 1.5 0 0 0 .54-.335c.164-.155.296-.37.396-.65s.15-.622.15-1.032a2.79 2.79 0 0 0-.068-.567c-.046-.214-.14-.42-.28-.615a1.65 1.65 0 0 0-.595-.492c-.255-.132-.593-.198-1.012-.198h-1.23zm14.835 3.514c0 .83-.1 1.538-.267 2.126s-.403 1.08-.677 1.477-.58.7-.923.937a4.63 4.63 0 0 1-.991.513c-.32.114-.6.187-.875.22L27.9 53h-3.814V42.924h3.035c.848 0 1.593.135 2.235.403s1.176.627 1.6 1.073.74.955.95 1.524.315 1.156.315 1.758zm-4.867 4.115c1.112 0 1.914-.355 2.406-1.066s.738-1.74.738-3.1c0-.42-.05-.834-.15-1.244a2.66 2.66 0 0 0-.581-1.114c-.287-.333-.677-.602-1.17-.807s-1.13-.308-1.914-.308h-.957v7.63h1.627zm8.913-7.63v3.172h4.2v1.12h-4.2V53h-1.668V42.924H40.9v1.244h-4.634z" fill="#fff"/></svg>