<svg xmlns="http://www.w3.org/2000/svg" viewBox="0 0 512 512"><path d="M100.64 0c-14.14 0-25.6 11.46-25.6 25.6v460.8c0 14.14 11.46 25.6 25.6 25.6h375.467c14.14 0 25.6-11.46 25.6-25.6V85.333L416.375 0H100.64z" fill="#ecedef"/><path d="M441.975 85.333h59.733L416.375 0v59.733c0 14.14 11.46 25.6 25.6 25.6z" fill="#d9dcdf"/><path d="M399.308 42.667H75.04v153.6h324.267c4.713 0 8.533-3.82 8.533-8.533V51.2c0-4.713-3.82-8.533-8.533-8.533z" fill="#c6cacf"/><path d="M382.24 179.2H18.843c-7.602 0-11.4-9.19-6.034-14.567L75.04 102.4 12.81 40.167C7.433 34.79 11.24 25.6 18.843 25.6H382.24c4.713 0 8.533 3.82 8.533 8.533v136.533c.001 4.713-3.82 8.534-8.533 8.534z" fill="#c4df64"/><path d="M185.975 76.8h-34.133c-4.713 0-8.533 3.82-8.533 8.533v51.2c0 4.713 3.82 8.533 8.533 8.533s8.533-3.82 8.533-8.533v-17.067h3.967l14.533 21.8c1.645 2.467 4.35 3.8 7.108 3.8 6.7 0 10.793-7.718 7.092-13.267l-8.223-12.334h1.122c4.713 0 8.533-3.82 8.533-8.533v-25.6c.001-4.713-3.82-8.534-8.532-8.534zm-25.6 17.067h17.067v8.533h-17.067v-8.533zm153.6 17.066v-25.6c0-4.713-3.82-8.533-8.533-8.533H271.3c-4.713 0-8.533 3.82-8.533 8.533v51.2c0 4.713 3.82 8.533 8.533 8.533s8.533-3.82 8.533-8.533v-17.067h3.967l14.533 21.8c1.644 2.467 4.35 3.8 7.108 3.8 6.7 0 10.8-7.72 7.1-13.267l-8.222-12.334h1.122c4.713 0 8.534-3.82 8.534-8.534zM279.84 93.867h17.067v8.533H279.84v-8.533zm-43.103-11.232c-1.162-3.485-4.422-5.835-8.095-5.835s-6.933 2.35-8.095 5.835l-17.067 51.2c-1.5 4.47.926 9.303 5.397 10.794a8.54 8.54 0 0 0 10.794-5.397l8.972-26.913 8.972 26.913c1.2 3.577 4.522 5.838 8.094 5.837 5.742 0 9.907-5.8 8.097-11.234l-17.07-51.2z" fill="#fff"/><path d="M228.64 349.867h153.6V256h-153.6c-18.85 0-34.133 15.282-34.133 34.133v25.6c0 18.852 15.282 34.134 34.133 34.134z" fill="#ffc44f"/><path d="M224.375 332.8c-7.07 0-12.8-5.73-12.8-12.8v-34.133c0-7.07 5.73-12.8 12.8-12.8h157.867V332.8H224.375z" fill="#ffd791"/><path d="M399.308 358.4h-179.2c-18.82 0-34.133-15.312-34.133-34.133V281.6c0-18.82 15.312-34.133 34.133-34.133h179.2c4.713 0 8.533 3.82 8.533 8.533s-3.82 8.533-8.533 8.533h-179.2c-9.4 0-17.067 7.657-17.067 17.067v42.667c0 9.4 7.657 17.067 17.067 17.067h179.2c4.713 0 8.533 3.82 8.533 8.533s-3.82 8.533-8.533 8.533z" fill="#db6b5e"/><path d="M228.64 290.133c0 4.713 3.82 8.533 8.533 8.533H382.24V281.6H237.175c-4.713 0-8.534 3.82-8.534 8.533zm8.535 17.067c-4.713 0-8.533 3.82-8.533 8.533s3.82 8.533 8.533 8.533h145.067V307.2H237.175z" fill="#f79f4d"/><path d="M228.64 460.8h153.6v-93.867h-153.6c-18.85 0-34.133 15.282-34.133 34.133v25.6c0 18.852 15.282 34.134 34.133 34.134z" fill="#ffc44f"/><path d="M224.375 443.733c-7.07 0-12.8-5.73-12.8-12.8V396.8c0-7.07 5.73-12.8 12.8-12.8h157.867v59.733H224.375z" fill="#ffd791"/><path d="M399.308 469.333h-179.2c-18.82 0-34.133-15.312-34.133-34.133v-42.667c0-18.82 15.312-34.133 34.133-34.133h179.2c4.713 0 8.533 3.82 8.533 8.533s-3.82 8.533-8.533 8.533h-179.2c-9.4 0-17.067 7.657-17.067 17.067V435.2c0 9.4 7.657 17.067 17.067 17.067h179.2c4.713 0 8.533 3.82 8.533 8.533s-3.82 8.533-8.533 8.533z" fill="#ff8c78"/><path d="M228.64 401.067c0 4.713 3.82 8.533 8.533 8.533H382.24v-17.067H237.175c-4.713 0-8.534 3.82-8.534 8.534zm8.535 17.066c-4.713 0-8.533 3.82-8.533 8.533s3.82 8.533 8.533 8.533h145.067v-17.067H237.175z" fill="#f79f4d"/><path d="M357.82 217.2a25.43 25.43 0 0 0-15.759-11.643c-6.637-1.648-13.518-.615-19.376 2.91-6.33 3.81-16.24 17.498-23.354 28.164-7.113-10.667-17.025-24.355-23.353-28.164-12.098-7.28-27.855-3.362-35.136 8.73s-3.362 27.856 8.732 35.135c6.834 4.114 25.812 6.53 38.8 7.745v209.43h17.067V260.506c12.538-1.026 35.9-3.505 43.65-8.17a25.43 25.43 0 0 0 11.642-15.759 25.44 25.44 0 0 0-2.912-19.376zm-99.444 20.513c-4.03-2.427-5.338-7.68-2.91-11.71 2.393-3.973 7.726-5.31 11.707-2.914 2.58 1.618 8.833 9.723 15.355 19.203-11.43-1.324-21.515-3.056-24.15-4.578zm85.792-5.252c-.55 2.212-1.927 4.078-3.874 5.25-2.638 1.522-12.725 3.255-24.156 4.58 6.52-9.48 12.772-17.582 15.348-19.198 3.987-2.4 9.314-1.07 11.71 2.91 1.175 1.953 1.52 4.247.97 6.46z" fill="#55606e"/></svg>