<svg xmlns="http://www.w3.org/2000/svg" xmlns:xlink="http://www.w3.org/1999/xlink" height="682.667" viewBox="-79 0 512 512" width="682.667"><path d="M353.102 485.516H0V0h273.656l79.445 79.45zm0 0" fill="#e3e4d8"/><path d="M273.656 0v79.45h79.445zm0 0" fill="#d0cebd"/><path d="M0 353.102h353.102V512H0zm0 0" fill="#4e74ba"/><g fill="#a09893"><path d="M123.586 229.516h-70.62c-4.87 0-8.828-3.953-8.828-8.824s3.957-8.828 8.828-8.828h70.62a8.83 8.83 0 0 1 8.828 8.828 8.83 8.83 0 0 1-8.828 8.824zm123.586 0H158.9a8.83 8.83 0 0 1-8.828-8.824 8.83 8.83 0 0 1 8.828-8.828h88.273a8.83 8.83 0 0 1 8.828 8.828 8.83 8.83 0 0 1-8.828 8.824zM220.7 264.828h-97.105c-4.87 0-8.828-3.957-8.828-8.828s3.957-8.828 8.828-8.828H220.7c4.87 0 8.824 3.957 8.824 8.828s-3.953 8.828-8.824 8.828zm79.447-35.312h-17.652a8.83 8.83 0 0 1-8.828-8.824 8.83 8.83 0 0 1 8.828-8.828h17.652a8.83 8.83 0 0 1 8.828 8.828 8.83 8.83 0 0 1-8.828 8.824zm0 0"/><path d="M300.137 264.828H256c-4.87 0-8.828-3.957-8.828-8.828s3.957-8.828 8.828-8.828h44.137c4.875 0 8.828 3.957 8.828 8.828s-3.953 8.828-8.828 8.828zm-211.86 0H52.965c-4.87 0-8.828-3.957-8.828-8.828s3.957-8.828 8.828-8.828h35.313c4.87 0 8.824 3.957 8.824 8.828s-3.953 8.828-8.824 8.828zm35.31 35.31h-70.62c-4.87 0-8.828-3.953-8.828-8.828a8.83 8.83 0 0 1 8.828-8.824h70.62a8.83 8.83 0 0 1 8.828 8.824 8.83 8.83 0 0 1-8.828 8.828zm123.586 0H158.9a8.83 8.83 0 0 1-8.828-8.828 8.83 8.83 0 0 1 8.828-8.824h88.273a8.83 8.83 0 0 1 8.828 8.824 8.83 8.83 0 0 1-8.828 8.828zm0 0"/><path d="M300.137 300.137h-17.652a8.83 8.83 0 0 1-8.828-8.828 8.83 8.83 0 0 1 8.828-8.824h17.652a8.83 8.83 0 0 1 8.828 8.824 8.83 8.83 0 0 1-8.828 8.828zm0-105.93h-70.62a8.83 8.83 0 0 1-8.824-8.828c0-4.87 3.953-8.828 8.824-8.828h70.62c4.875 0 8.828 3.957 8.828 8.828a8.83 8.83 0 0 1-8.828 8.828zm-105.93 0H105.93c-4.87 0-8.828-3.953-8.828-8.828s3.957-8.828 8.828-8.828h88.277c4.87 0 8.828 3.957 8.828 8.828s-3.957 8.828-8.828 8.828zm35.31-35.31h-97.102c-4.875 0-8.828-3.957-8.828-8.828a8.83 8.83 0 0 1 8.828-8.828h97.102a8.83 8.83 0 0 1 8.828 8.828c0 4.87-3.953 8.828-8.828 8.828zm0 0"/><path d="M70.62 194.207H52.965c-4.87 0-8.828-3.953-8.828-8.828s3.957-8.828 8.828-8.828H70.62c4.87 0 8.828 3.957 8.828 8.828s-3.957 8.828-8.828 8.828zm26.482-35.31H52.965c-4.87 0-8.828-3.957-8.828-8.828s3.957-8.828 8.828-8.828h44.137a8.83 8.83 0 0 1 8.828 8.828c0 4.87-3.953 8.828-8.828 8.828zm203.035 0h-35.3c-4.875 0-8.828-3.957-8.828-8.828a8.83 8.83 0 0 1 8.828-8.828h35.3a8.83 8.83 0 0 1 8.828 8.828c0 4.87-3.953 8.828-8.828 8.828zm0 0"/></g><g fill="#fff"><path d="M105.93 397.242H52.965c-4.87 0-8.828-3.957-8.828-8.828s3.957-8.828 8.828-8.828h52.965a8.83 8.83 0 0 1 8.828 8.828c0 4.87-3.953 8.828-8.828 8.828zm0 0"/><use xlink:href="#B"/><path d="M150.06 485.516c-1.543 0-3.113-.406-4.527-1.262-4.184-2.508-5.535-7.926-3.027-12.11l52.965-88.277a8.83 8.83 0 0 1 12.113-3.027c4.184 2.508 5.535 7.926 3.027 12.113l-52.965 88.273a8.83 8.83 0 0 1-7.586 4.289zm0 0"/><path d="M203.043 485.516c-3 0-5.922-1.527-7.574-4.28l-52.965-88.273a8.83 8.83 0 0 1 3.027-12.113c4.176-2.516 9.605-1.156 12.113 3.027l52.965 88.277a8.83 8.83 0 0 1-3.027 12.113 8.88 8.88 0 0 1-4.54 1.25zm97.094-88.274h-52.965c-4.87 0-8.828-3.957-8.828-8.828s3.957-8.828 8.828-8.828h52.965a8.83 8.83 0 0 1 8.828 8.828c0 4.87-3.953 8.828-8.828 8.828zm0 0"/><use xlink:href="#B" x="194.206"/></g><defs ><path id="B" d="M79.45 485.516a8.83 8.83 0 0 1-8.828-8.824v-88.277a8.83 8.83 0 0 1 8.828-8.828c4.87 0 8.828 3.953 8.828 8.828v88.277c0 4.87-3.957 8.824-8.828 8.824zm0 0"/></defs></svg>