<svg xmlns="http://www.w3.org/2000/svg" viewBox="0 0 56 56"><path d="M36.985 0H7.963C7.155 0 6.5.655 6.5 1.926V55c0 .345.655 1 1.463 1h40.074c.808 0 1.463-.655 1.463-1V12.978c0-.696-.093-.92-.257-1.085L37.607.257C37.442.093 37.218 0 36.985 0z" fill="#e9e9e0"/><path d="M37.5.15V12h11.85z" fill="#d9d7ca"/><path d="M48.037 56H7.963c-.808 0-1.463-.655-1.463-1.463V39h43v15.537c0 .808-.655 1.463-1.463 1.463z" fill="#91cda0"/><path d="M20.38 48.105L22.936 53h-1.9l-1.6-3.8H19.3L17.576 53h-1.9l2.557-4.895-2.72-5.182h1.873l1.777 4.102h.137l1.928-4.102H23.1l-2.72 5.182zm6.657-5.18v8.832h4.635V53H25.37V42.924h1.668zm12.003 7.314a2.6 2.6 0 0 1-.226 1.06 2.77 2.77 0 0 1-.635.902c-.273.26-.6.467-1.012.622s-.857.232-1.367.232c-.22 0-.444-.012-.677-.034s-.467-.062-.704-.116a3.61 3.61 0 0 1-.677-.226 2.17 2.17 0 0 1-.554-.349l.287-1.176a2.92 2.92 0 0 0 .485.212l.608.2c.2.06.42.107.63.144a3.48 3.48 0 0 0 .588.055c.556 0 .982-.13 1.278-.4s.444-.645.444-1.155c0-.3-.105-.574-.314-.793s-.472-.417-.786-.595l-1.02-.533a6.11 6.11 0 0 1-1.025-.63 3.28 3.28 0 0 1-.793-.854c-.2-.328-.314-.738-.314-1.23 0-.446.082-.843.246-1.2a2.66 2.66 0 0 1 .663-.882c.278-.24.602-.426.97-.554s.76-.2 1.17-.2a7.17 7.17 0 0 1 1.271.116c.428.077.774.203 1.04.376l-.2.4-.205.396-.164.308-.082.137a1.65 1.65 0 0 1-.185-.109c-.07-.046-.167-.1-.294-.137a2.04 2.04 0 0 0-.506-.096 4.78 4.78 0 0 0-.807.014 1.41 1.41 0 0 0-.52.157 1.8 1.8 0 0 0-.438.321 1.44 1.44 0 0 0-.3.43 1.1 1.1 0 0 0-.109.458c0 .364.104.658.314.882s.47.42.78.588l1.012.492a5.52 5.52 0 0 1 1.019.581c.315.227.576.513.786.854s.317.78.317 1.32z" fill="#fff"/><path d="M23.5 16v-4h-12v22h33V16h-21zm-10-2h8v2h-8v-2zm0 4h8v2h-8v-2zm0 4h8v2h-8v-2zm0 4h8v2h-8v-2zm8 6h-8v-2h8v2zm21 0h-19v-2h19v2zm0-4h-19v-2h19v2zm0-4h-19v-2h19v2zm-19-4v-2h19v2h-19z" fill="#c8bdb8"/></svg>