<svg xmlns="http://www.w3.org/2000/svg" viewBox="0 0 512 512"><path d="M438.557 512H19.785a14.88 14.88 0 0 1-14.876-14.876V256.916a14.88 14.88 0 0 1 14.876-14.876 14.88 14.88 0 0 1 14.876 14.876v225.332h389.02v-32.833a14.88 14.88 0 0 1 14.876-14.876 14.88 14.88 0 0 1 14.876 14.876v47.71A14.88 14.88 0 0 1 438.557 512z" fill="#507c5c"/><path d="M19.785 177.122v-4.8L175.58 14.876v162.246zm176.37 42.313h296.06v163.65h-296.06z" fill="#cff09e"/><path d="M492.215 204.56h-38.782V14.876A14.88 14.88 0 0 0 438.557 0H175.58l-1.044.052c-.643.046-1.282.118-1.9.245l-.042.01a14.63 14.63 0 0 0-1.815.509l-.463.167c-.585.222-1.16.47-1.7.762-.02.01-.042.018-.06.03a14.69 14.69 0 0 0-1.635 1.04l-.4.3c-.522.402-1.028.827-1.497 1.3L9.2 161.868c-.35.353-.678.72-.988 1.104-.207.254-.388.52-.576.784l-.283.388-.592.998-.143.245-.495 1.056-.116.256a14.39 14.39 0 0 0-.369 1.038l-.113.33a14.34 14.34 0 0 0-.242.971l-.106.442-.134.907-.074.53-.07 1.4v4.792a14.88 14.88 0 0 0 14.876 14.876H175.57a14.88 14.88 0 0 0 14.876-14.876V29.752h233.225V204.56H196.156a14.88 14.88 0 0 0-14.876 14.876V383.08a14.88 14.88 0 0 0 14.876 14.876h296.06a14.88 14.88 0 0 0 14.876-14.876V219.435a14.88 14.88 0 0 0-14.876-14.876zM50.7 162.246L160.705 51.06v111.186H50.7zm426.65 205.957H211.032V234.3H477.34v133.892zm-221.648-54.328l-16.073 27.302c-.77 1.2-2.312 1.76-4.073 1.76-4.734 0-11.45-3.743-11.45-8.476 0-1 .33-1.98.992-3.082l19.046-29.393-18.275-29.283c-.77-1.2-1.1-2.312-1.1-3.413 0-4.623 6.275-8.148 11.12-8.148 2.422 0 4.073.88 5.174 2.862l14.642 25.54 14.64-25.54c1.1-1.98 2.754-2.862 5.175-2.862 4.844 0 11.12 3.523 11.12 8.148 0 1.1-.332 2.202-1.1 3.413l-18.275 29.283L286.3 331.38c.66 1.1 1 2.092 1 3.082 0 4.734-6.715 8.476-11.45 8.476-1.76 0-3.413-.55-4.073-1.76L255.7 313.876zm45.903 28.402c-3.744 0-7.487-1.76-7.487-5.284v-70.017c0-3.633 4.295-5.174 8.586-5.174s8.586 1.54 8.586 5.174v60.33h25.1c3.304 0 4.955 3.744 4.955 7.487s-1.65 7.486-4.955 7.486h-34.786zm79.7-21.577c0-13.32-34.9-11-34.9-36.77 0-16.514 14.422-22.788 28.182-22.788 5.836 0 21.9 1.1 21.9 9.7 0 2.972-1.98 9.027-6.827 9.027-3.963 0-6.055-4.183-15.083-4.183-7.816 0-11.008 3.192-11.008 6.605 0 11 34.9 8.918 34.9 36.66 0 15.853-11.56 24.44-27.523 24.44-14.42 0-26.53-7.045-26.53-14.312 0-3.744 3.304-9.248 7.486-9.248 5.175 0 8.476 8.148 18.715 8.148 5.066-.001 10.68-1.983 10.68-7.268zm52.18-6.825L417.4 341.177c-.772 1.2-2.313 1.76-4.073 1.76-4.735 0-11.45-3.743-11.45-8.476 0-1 .33-1.98 1-3.082l19.046-29.393-18.275-29.283c-.77-1.2-1.1-2.312-1.1-3.413 0-4.623 6.276-8.148 11.12-8.148 2.422 0 4.073.88 5.175 2.862l14.642 25.54 14.642-25.54c1.1-1.98 2.752-2.862 5.174-2.862 4.845 0 11.12 3.523 11.12 8.148 0 1.1-.33 2.202-1.1 3.413l-18.274 29.283 19.046 29.393c.66 1.1 1 2.092 1 3.082 0 4.734-6.717 8.476-11.45 8.476-1.763 0-3.414-.55-4.073-1.76l-16.08-27.302z" fill="#507c5c"/></svg>