<svg xmlns="http://www.w3.org/2000/svg" xmlns:xlink="http://www.w3.org/1999/xlink" viewBox="0 0 56 56"><path d="M36.985 0H7.963C7.155 0 6.5.655 6.5 1.926V55c0 .345.655 1 1.463 1h40.074c.808 0 1.463-.655 1.463-1V12.978c0-.696-.093-.92-.257-1.085L37.607.257C37.442.093 37.218 0 36.985 0z" fill="#e9e9e0"/><path d="M37.5.15V12h11.85z" fill="#d9d7ca"/><path d="M48.037 56H7.963c-.808 0-1.463-.655-1.463-1.463V39h43v15.537c0 .808-.655 1.463-1.463 1.463z" fill="#f29c1f"/><path d="M19.38 48.105L21.936 53h-1.9l-1.6-3.8H18.3L16.576 53h-1.9l2.557-4.895-2.72-5.182h1.873l1.777 4.102h.137l1.928-4.102H22.1l-2.72 5.182zm12.618-5.18h1.668V53h-1.668v-6.932l-2.256 5.605h-1.45l-2.27-5.605V53h-1.668V42.924h1.668l2.994 6.9 2.98-6.9zm5.865 0v8.832h4.635V53h-6.303V42.924h1.668z" fill="#fff"/><g fill="#f29c1f"><use xlink:href="#B"/><use xlink:href="#C"/><use xlink:href="#B" x="18" y="6"/><use xlink:href="#C" x="18" y="-6"/><path d="M24.5 32a1 1 0 0 1-.943-1.334l6-17a1 1 0 1 1 1.886.666l-6 17A1 1 0 0 1 24.5 32z"/></g><defs ><path id="B" d="M15.5 24c-.256 0-.512-.098-.707-.293a1 1 0 0 1 0-1.414l6-6a1 1 0 0 1 1.414 1.414l-6 6c-.195.195-.45.293-.707.293z"/><path id="C" d="M21.5 30c-.256 0-.512-.098-.707-.293l-6-6a1 1 0 0 1 1.414-1.414l6 6a1 1 0 0 1 0 1.414c-.195.195-.45.293-.707.293z"/></defs></svg>