<svg xmlns="http://www.w3.org/2000/svg" viewBox="0 0 56 56"><path d="M36.985 0H7.963C7.155 0 6.5.655 6.5 1.926V55c0 .345.655 1 1.463 1h40.074c.808 0 1.463-.655 1.463-1V12.978c0-.696-.093-.92-.257-1.085L37.607.257C37.442.093 37.218 0 36.985 0z" fill="#e9e9e0"/><path d="M37.5.15V12h11.85z" fill="#d9d7ca"/><path d="M48.037 56H7.963c-.808 0-1.463-.655-1.463-1.463V39h43v15.537c0 .808-.655 1.463-1.463 1.463z" fill="#556080"/><path d="M25.266 42.924v1.326l-4.8 7.205-.273.22h5.072V53h-6.7v-1.326l4.8-7.205.287-.22h-5.086v-1.326h6.7zM29.27 53h-1.668V42.924h1.668V53zm4.144 0h-1.64V42.924h2.898c.428 0 .852.068 1.27.205s.795.342 1.128.615a3.21 3.21 0 0 1 .807.991c.205.387.308.822.308 1.306 0 .5-.087.973-.26 1.388a2.9 2.9 0 0 1-.725 1.046c-.3.282-.684.5-1.12.656s-.92.232-1.45.232h-1.217V53zm0-8.832v3.992h1.504c.2 0 .398-.034.595-.103a1.5 1.5 0 0 0 .54-.335c.164-.155.296-.37.396-.65s.15-.622.15-1.032a2.79 2.79 0 0 0-.068-.567c-.046-.214-.14-.42-.28-.615a1.65 1.65 0 0 0-.595-.492c-.255-.132-.593-.198-1.012-.198h-1.23z" fill="#fff"/><path d="M28.5 24v-2h2v-2h-2v-2h2v-2h-2v-2h2v-2h-2v-2h2V8h-2V6h-2v2h-2v2h2v2h-2v2h2v2h-2v2h2v2h-2v2h2v2h-4v5c0 2.757 2.243 5 5 5s5-2.243 5-5v-5h-4zm2 5c0 1.654-1.346 3-3 3s-3-1.346-3-3v-3h6v3zm-4 1h2a1 1 0 1 0 0-2h-2a1 1 0 1 0 0 2z" fill="#c8bdb8"/></svg>